<?xml version="1.0" encoding="UTF-8"?>
<svg xmlns="http://www.w3.org/2000/svg" xmlns:xlink="http://www.w3.org/1999/xlink" width="500px" height="500px" viewBox="0 0 500 500" version="1.1">
<g id="surface1">
<path style=" stroke:none;fill-rule:nonzero;fill:rgb(0%,0%,0%);fill-opacity:1;" d="M 238.425781 42.089844 C 238.625 46.730469 238.769531 54.882812 238.769531 60.15625 L 238.769531 69.824219 L 244.285156 69.824219 L 244.042969 57.46875 C 243.898438 50.730469 243.898438 45.605469 243.996094 46.144531 C 244.191406 47.019531 249.414062 64.597656 250.535156 68.214844 C 251.023438 69.824219 251.074219 69.824219 254.199219 69.824219 L 257.324219 69.824219 L 257.324219 64.308594 C 257.324219 61.230469 257.175781 53.125 256.984375 46.238281 L 256.6875 33.691406 L 251.316406 33.691406 L 251.609375 44.285156 L 251.953125 54.929688 L 250.78125 51.269531 C 250.195312 49.265625 248.730469 44.484375 247.558594 40.625 L 245.410156 33.691406 L 238.136719 33.691406 Z M 238.425781 42.089844 "/>
<path style=" stroke:none;fill-rule:nonzero;fill:rgb(0%,0%,0%);fill-opacity:1;" d="M 223.144531 34.765625 C 221.386719 35.011719 219.824219 35.351562 219.679688 35.546875 C 219.53125 35.742188 219.042969 40.820312 218.554688 46.875 C 218.066406 52.929688 217.382812 60.9375 217.039062 64.695312 C 216.652344 68.410156 216.40625 71.582031 216.503906 71.628906 C 216.554688 71.730469 217.96875 71.628906 219.628906 71.484375 L 222.65625 71.140625 L 222.65625 67.335938 C 222.65625 63.917969 222.753906 63.476562 223.585938 63.476562 C 224.074219 63.476562 225.4375 63.328125 226.660156 63.183594 L 228.808594 62.890625 L 229.6875 66.601562 L 230.566406 70.363281 L 233.546875 70.019531 C 235.203125 69.824219 236.621094 69.675781 236.671875 69.628906 C 236.914062 69.433594 227.097656 34.472656 226.757812 34.375 C 226.511719 34.328125 224.902344 34.519531 223.144531 34.765625 Z M 226.125 50.925781 C 226.90625 54.394531 227.539062 57.371094 227.539062 57.570312 C 227.539062 57.765625 226.5625 57.957031 225.339844 58.058594 L 223.09375 58.15625 L 223.339844 54.589844 C 224.074219 44.726562 224.316406 42.332031 224.511719 43.457031 C 224.609375 44.140625 225.339844 47.511719 226.125 50.925781 Z M 226.125 50.925781 "/>
<path style=" stroke:none;fill-rule:nonzero;fill:rgb(0%,0%,0%);fill-opacity:1;" d="M 278.320312 36.230469 C 274.902344 37.988281 274.167969 39.890625 272.363281 52.492188 C 271.339844 59.667969 270.949219 63.867188 271.191406 65.089844 C 271.628906 67.53125 274.367188 70.457031 276.757812 71.191406 C 281.59375 72.65625 285.691406 71.4375 287.695312 68.066406 C 288.574219 66.550781 289.890625 61.230469 289.5 60.789062 C 289.355469 60.691406 288.039062 60.402344 286.523438 60.15625 L 283.789062 59.71875 L 283.253906 62.5 C 282.960938 64.015625 282.421875 65.527344 282.128906 65.820312 C 281.152344 66.796875 279.054688 66.503906 277.878906 65.234375 L 276.757812 64.0625 L 278.074219 55.078125 C 280.226562 40.480469 280.027344 40.964844 282.617188 40.917969 C 285.15625 40.820312 285.792969 41.796875 285.5 44.972656 L 285.253906 47.753906 L 288.085938 48.191406 C 290.773438 48.632812 290.964844 48.585938 291.210938 47.65625 C 291.796875 45.457031 291.453125 41.746094 290.527344 39.792969 C 288.574219 35.792969 282.566406 34.03125 278.320312 36.230469 Z M 278.320312 36.230469 "/>
<path style=" stroke:none;fill-rule:nonzero;fill:rgb(0%,0%,0%);fill-opacity:1;" d="M 203.855469 37.453125 C 203.074219 37.597656 202.246094 37.839844 202.050781 37.988281 C 201.757812 38.28125 203.5625 48.828125 204.347656 51.21875 C 204.542969 51.953125 204.101562 52.148438 201.5625 52.636719 C 199.609375 52.976562 198.4375 53.027344 198.242188 52.734375 C 198.09375 52.441406 197.410156 49.363281 196.777344 45.851562 L 195.65625 39.453125 L 194.140625 39.792969 C 193.308594 39.941406 191.894531 40.234375 191.015625 40.378906 C 189.648438 40.625 189.402344 40.871094 189.597656 41.699219 C 189.746094 42.285156 191.308594 50.097656 193.164062 59.082031 C 194.96875 68.066406 196.484375 75.488281 196.535156 75.585938 C 196.582031 75.636719 197.949219 75.441406 199.511719 75.046875 C 202.148438 74.460938 202.394531 74.316406 202.246094 73.242188 C 202.050781 71.777344 199.804688 60.644531 199.460938 59.523438 C 199.269531 58.9375 199.855469 58.644531 202.246094 58.203125 C 203.90625 57.910156 205.320312 57.714844 205.421875 57.8125 C 205.515625 57.863281 206.25 61.425781 207.128906 65.625 C 208.203125 70.996094 208.839844 73.242188 209.226562 73.046875 C 209.570312 72.949219 210.839844 72.65625 212.109375 72.507812 C 213.476562 72.265625 214.355469 71.921875 214.355469 71.484375 C 214.355469 71.140625 213.035156 64.0625 211.472656 55.8125 C 209.863281 47.558594 208.398438 39.941406 208.203125 38.917969 C 207.859375 36.964844 207.667969 36.914062 203.855469 37.453125 Z M 203.855469 37.453125 "/>
<path style=" stroke:none;fill-rule:nonzero;fill:rgb(0%,0%,0%);fill-opacity:1;" d="M 298.144531 39.40625 C 297.410156 42.039062 291.015625 72.902344 291.210938 73.09375 C 291.453125 73.339844 303.613281 76.121094 304.542969 76.171875 C 304.882812 76.171875 305.371094 75.292969 305.664062 74.167969 C 305.957031 73.09375 306.296875 71.921875 306.445312 71.582031 C 306.640625 71.140625 305.417969 70.703125 302.246094 70.070312 C 298.730469 69.335938 297.898438 68.996094 298.097656 68.410156 C 298.585938 66.648438 304.199219 41.066406 304.199219 40.429688 C 304.199219 39.992188 303.269531 39.5 301.710938 39.160156 C 298.535156 38.425781 298.4375 38.425781 298.144531 39.40625 Z M 298.144531 39.40625 "/>
<path style=" stroke:none;fill-rule:nonzero;fill:rgb(0%,0%,0%);fill-opacity:1;" d="M 174.804688 44.53125 C 170.359375 45.945312 166.699219 47.070312 166.652344 47.117188 C 166.503906 47.21875 168.019531 51.855469 168.261719 52.199219 C 168.3125 52.246094 169.53125 51.953125 170.898438 51.511719 C 172.3125 51.074219 173.585938 50.878906 173.777344 51.074219 C 174.023438 51.316406 175.976562 57.765625 178.222656 65.429688 C 180.46875 73.09375 182.324219 79.441406 182.421875 79.542969 C 182.46875 79.640625 183.835938 79.296875 185.402344 78.808594 L 188.28125 77.882812 L 184.179688 63.964844 C 181.933594 56.296875 180.03125 49.757812 180.03125 49.363281 C 179.980469 48.925781 180.859375 48.390625 182.519531 47.898438 C 183.984375 47.460938 185.109375 46.875 185.109375 46.632812 C 185.109375 45.265625 183.886719 41.992188 183.398438 41.992188 C 183.105469 42.039062 179.25 43.164062 174.804688 44.53125 Z M 174.804688 44.53125 "/>
<path style=" stroke:none;fill-rule:nonzero;fill:rgb(0%,0%,0%);fill-opacity:1;" d="M 319.582031 45.851562 C 318.503906 46.339844 317.089844 47.460938 316.457031 48.339844 C 315.234375 50.050781 309.71875 66.308594 309.230469 69.675781 C 309.082031 70.800781 309.082031 72.460938 309.277344 73.4375 C 310.546875 80.273438 321.679688 82.519531 325.535156 76.707031 C 327.148438 74.316406 333.007812 56.203125 333.007812 53.664062 C 333.007812 50.390625 331.347656 47.851562 328.175781 46.238281 C 325.046875 44.679688 322.363281 44.53125 319.582031 45.851562 Z M 325.390625 50.878906 C 326.074219 51.171875 326.757812 51.855469 326.953125 52.34375 C 327.101562 52.878906 325.828125 57.617188 323.925781 63.574219 C 320.3125 74.707031 319.875 75.441406 316.992188 74.414062 C 314.453125 73.535156 314.503906 72.167969 317.578125 62.644531 C 321.679688 50 322.121094 49.363281 325.390625 50.878906 Z M 325.390625 50.878906 "/>
<path style=" stroke:none;fill-rule:nonzero;fill:rgb(0%,0%,0%);fill-opacity:1;" d="M 337.695312 52.492188 C 337.207031 53.664062 336.960938 54.832031 337.0625 55.03125 C 337.207031 55.273438 338.425781 55.859375 339.792969 56.398438 C 341.160156 56.933594 342.285156 57.46875 342.285156 57.664062 C 342.285156 57.863281 339.84375 63.671875 336.867188 70.605469 C 333.886719 77.589844 331.347656 83.496094 331.25 83.789062 C 331.007812 84.277344 335.207031 86.425781 336.328125 86.425781 C 336.621094 86.425781 339.40625 80.421875 342.527344 73.046875 L 348.292969 59.667969 L 350.4375 60.597656 C 351.660156 61.082031 352.832031 61.523438 353.078125 61.523438 C 353.515625 61.523438 355.664062 57.128906 355.371094 56.882812 C 354.980469 56.496094 339.160156 50.292969 338.621094 50.292969 C 338.574219 50.292969 338.132812 51.269531 337.695312 52.492188 Z M 337.695312 52.492188 "/>
<path style=" stroke:none;fill-rule:nonzero;fill:rgb(0%,0%,0%);fill-opacity:1;" d="M 144.289062 56.003906 C 140.820312 57.46875 137.84375 58.789062 137.742188 58.886719 C 137.648438 58.984375 138.914062 62.207031 140.625 66.015625 C 144.433594 74.65625 151.855469 90.96875 152 91.160156 C 152.101562 91.210938 154.539062 90.136719 157.472656 88.820312 C 160.449219 87.453125 163.574219 86.035156 164.453125 85.695312 L 166.015625 85.007812 L 164.941406 82.667969 C 164.304688 81.394531 163.820312 80.222656 163.769531 80.175781 C 163.671875 80.078125 161.765625 80.859375 159.425781 81.980469 C 155.226562 83.933594 155.226562 83.933594 154.832031 82.859375 C 154.589844 82.273438 153.710938 80.273438 152.878906 78.46875 C 152.050781 76.609375 151.464844 74.949219 151.5625 74.753906 C 151.707031 74.5625 153.320312 73.78125 155.226562 73.046875 L 158.59375 71.730469 L 157.566406 69.335938 C 156.980469 68.015625 156.25 66.894531 155.90625 66.894531 C 155.613281 66.894531 153.90625 67.53125 152.148438 68.359375 L 148.875 69.777344 L 148.488281 68.703125 C 148.242188 68.117188 147.460938 66.308594 146.726562 64.746094 C 146.046875 63.183594 145.65625 61.71875 145.847656 61.523438 C 146.046875 61.328125 147.753906 60.546875 149.5625 59.816406 C 151.367188 59.03125 152.980469 58.25 153.125 58.058594 C 153.367188 57.617188 151.320312 53.222656 150.925781 53.269531 C 150.734375 53.269531 147.800781 54.492188 144.289062 56.003906 Z M 144.289062 56.003906 "/>
<path style=" stroke:none;fill-rule:nonzero;fill:rgb(0%,0%,0%);fill-opacity:1;" d="M 358.496094 61.621094 C 356.003906 66.0625 344.238281 89.257812 344.238281 89.648438 C 344.238281 89.894531 345.3125 90.671875 346.632812 91.453125 L 349.074219 92.773438 L 352.585938 86.082031 C 354.539062 82.375 356.152344 79.296875 356.25 79.199219 C 356.347656 79.054688 361.230469 81.394531 361.671875 81.738281 C 361.765625 81.835938 360.253906 84.765625 358.398438 88.328125 C 356.492188 91.894531 354.980469 94.972656 354.980469 95.214844 C 354.980469 95.898438 359.425781 98.292969 359.863281 97.851562 C 360.105469 97.605469 363.917969 90.722656 368.359375 82.519531 L 376.367188 67.628906 L 373.875 66.308594 C 372.460938 65.578125 371.191406 64.988281 370.996094 64.941406 C 370.851562 64.941406 369.335938 67.53125 367.625 70.65625 C 365.964844 73.828125 364.503906 76.515625 364.40625 76.609375 C 364.304688 76.757812 363.039062 76.269531 361.570312 75.535156 L 358.886719 74.21875 L 362.058594 68.214844 C 363.816406 64.890625 365.234375 62.011719 365.234375 61.863281 C 365.234375 61.570312 360.691406 59.082031 360.15625 59.082031 C 360.058594 59.082031 359.277344 60.253906 358.496094 61.621094 Z M 358.496094 61.621094 "/>
<path style=" stroke:none;fill-rule:nonzero;fill:rgb(0%,0%,0%);fill-opacity:1;" d="M 122.703125 67.1875 C 120.363281 68.410156 118.015625 69.675781 117.53125 70.070312 C 116.699219 70.65625 117.089844 71.484375 122.609375 81.59375 C 125.878906 87.597656 129.734375 94.578125 131.203125 97.070312 L 133.835938 101.5625 L 135.402344 100.78125 C 136.28125 100.292969 137.449219 99.609375 138.085938 99.21875 L 139.160156 98.535156 L 138.136719 96.828125 C 135.890625 93.214844 131.835938 85.644531 131.835938 85.109375 C 131.835938 84.277344 135.109375 83.742188 135.9375 84.472656 C 136.328125 84.765625 137.988281 87.304688 139.648438 90.136719 C 141.308594 92.921875 142.871094 95.3125 143.066406 95.460938 C 143.308594 95.605469 144.582031 95.019531 145.898438 94.1875 L 148.339844 92.675781 L 145.3125 87.792969 C 141.847656 82.082031 139.257812 79.101562 137.792969 79.101562 C 136.621094 79.101562 136.425781 78.613281 137.253906 77.78125 C 138.234375 76.808594 137.84375 73.730469 136.28125 70.554688 C 133.105469 64.160156 130.03125 63.378906 122.703125 67.1875 Z M 129.835938 71.582031 C 131.496094 73.683594 132.910156 77.050781 132.570312 78.125 C 132.324219 78.953125 130.078125 80.566406 129.199219 80.566406 C 128.90625 80.566406 124.363281 72.214844 124.609375 72.070312 C 125.144531 71.582031 127.78125 70.363281 128.269531 70.3125 C 128.5625 70.3125 129.296875 70.898438 129.835938 71.582031 Z M 129.835938 71.582031 "/>
<path style=" stroke:none;fill-rule:nonzero;fill:rgb(0%,0%,0%);fill-opacity:1;" d="M 376.171875 79.199219 C 368.503906 91.601562 363.136719 100.585938 363.332031 100.78125 C 363.425781 100.832031 364.550781 101.613281 365.820312 102.441406 L 368.117188 103.953125 L 371.972656 97.753906 C 382.175781 81.445312 386.230469 74.753906 386.230469 74.363281 C 386.230469 74.023438 381.835938 71.289062 381.25 71.289062 C 381.152344 71.289062 378.855469 74.855469 376.171875 79.199219 Z M 376.171875 79.199219 "/>
<path style=" stroke:none;fill-rule:nonzero;fill:rgb(0%,0%,0%);fill-opacity:1;" d="M 106.054688 78.074219 C 101.707031 79.589844 99.609375 82.226562 99.609375 86.28125 C 99.660156 89.355469 100.683594 91.554688 106.152344 99.804688 C 113.136719 110.351562 116.015625 112.453125 120.949219 110.597656 C 125.730469 108.738281 128.417969 104.832031 127.683594 100.585938 C 127.296875 98.242188 124.363281 93.214844 118.847656 85.5 C 113.183594 77.539062 111.085938 76.316406 106.054688 78.074219 Z M 110.984375 85.058594 C 114.84375 89.84375 122.070312 101.125 122.070312 102.390625 C 122.070312 105.078125 118.796875 106.492188 116.945312 104.640625 C 115.917969 103.660156 106.886719 90.1875 105.8125 88.035156 C 104.738281 85.988281 104.785156 85.644531 106.199219 84.226562 C 107.910156 82.46875 109.082031 82.714844 110.984375 85.058594 Z M 110.984375 85.058594 "/>
<path style=" stroke:none;fill-rule:nonzero;fill:rgb(0%,0%,0%);fill-opacity:1;" d="M 389.109375 80.664062 C 387.941406 82.375 383.398438 88.671875 379.050781 94.726562 L 371.144531 105.664062 L 373.191406 107.03125 C 374.316406 107.765625 375.390625 108.398438 375.535156 108.398438 C 375.78125 108.398438 384.179688 97.070312 387.402344 92.285156 C 389.5 89.207031 389.941406 88.71875 389.402344 90.085938 C 388.964844 91.210938 381.882812 111.183594 381.496094 112.351562 C 381.347656 112.890625 382.082031 113.71875 383.691406 114.890625 L 386.132812 116.601562 L 392.480469 107.765625 C 395.996094 102.878906 400.632812 96.433594 402.734375 93.40625 L 406.59375 87.988281 L 404.441406 86.425781 C 403.222656 85.59375 402.199219 84.960938 402.148438 85.058594 C 402.101562 85.15625 400.046875 87.941406 397.65625 91.308594 C 395.214844 94.679688 392.527344 98.4375 391.699219 99.707031 C 389.308594 103.171875 389.015625 102.929688 390.820312 99.023438 C 391.75 97.070312 393.457031 92.578125 394.675781 89.113281 C 395.898438 85.59375 397.019531 82.421875 397.167969 82.03125 C 397.363281 81.542969 396.582031 80.761719 394.628906 79.441406 C 393.066406 78.46875 391.648438 77.636719 391.503906 77.636719 C 391.355469 77.636719 390.28125 79.003906 389.109375 80.664062 Z M 389.109375 80.664062 "/>
<path style=" stroke:none;fill-rule:nonzero;fill:rgb(0%,0%,0%);fill-opacity:1;" d="M 87.160156 92.332031 C 85.792969 93.40625 84.570312 94.480469 84.328125 94.679688 C 83.984375 95.019531 92.1875 110.105469 94.726562 113.816406 C 95.558594 115.039062 94.972656 114.648438 92.726562 112.5 C 89.746094 109.617188 79.101562 101.21875 77.929688 100.78125 C 77.636719 100.683594 76.074219 101.757812 74.511719 103.222656 L 71.582031 105.8125 L 79.882812 115.285156 C 84.421875 120.507812 89.550781 126.417969 91.261719 128.417969 C 93.019531 130.421875 94.53125 132.128906 94.726562 132.226562 C 94.875 132.277344 95.703125 131.640625 96.53125 130.761719 L 98.046875 129.148438 L 93.40625 123.535156 C 90.867188 120.457031 87.453125 116.457031 85.839844 114.597656 C 84.277344 112.792969 83.054688 111.328125 83.253906 111.328125 C 83.398438 111.328125 86.328125 113.574219 89.746094 116.359375 C 93.164062 119.140625 97.21875 122.363281 98.78125 123.535156 L 101.613281 125.636719 L 103.171875 124.21875 C 104.003906 123.4375 104.832031 122.753906 104.933594 122.703125 C 105.03125 122.65625 104.640625 122.023438 104.152344 121.238281 C 103.613281 120.507812 101.367188 116.457031 99.121094 112.304688 C 96.925781 108.152344 94.679688 104.050781 94.140625 103.273438 L 93.164062 101.804688 L 94.578125 103.320312 C 96.53125 105.417969 107.472656 118.457031 107.957031 119.191406 C 108.203125 119.628906 108.984375 119.285156 110.691406 117.917969 C 111.964844 116.894531 113.136719 115.964844 113.230469 115.871094 C 113.425781 115.722656 109.863281 111.71875 97.707031 98.484375 C 93.554688 93.992188 90.039062 90.332031 89.894531 90.332031 C 89.699219 90.332031 88.476562 91.210938 87.160156 92.332031 Z M 87.160156 92.332031 "/>
<path style=" stroke:none;fill-rule:nonzero;fill:rgb(0%,0%,0%);fill-opacity:1;" d="M 210.207031 94.679688 C 208.496094 95.410156 207.421875 97.070312 207.175781 99.265625 C 206.835938 102.34375 207.960938 104.34375 211.472656 106.835938 C 214.257812 108.839844 214.40625 109.03125 214.257812 110.742188 C 214.113281 112.402344 213.964844 112.550781 212.648438 112.550781 C 211.328125 112.550781 211.179688 112.351562 211.035156 110.9375 C 210.886719 109.472656 210.742188 109.375 208.933594 109.375 C 207.128906 109.375 207.03125 109.472656 207.03125 110.839844 C 207.03125 114.503906 210.15625 117.089844 213.867188 116.457031 C 216.554688 116.015625 217.871094 114.304688 218.164062 111.183594 C 218.457031 107.664062 217.480469 106.003906 213.867188 103.515625 C 211.425781 101.855469 210.9375 101.269531 210.9375 100.144531 C 210.9375 99.367188 211.230469 98.484375 211.621094 98.191406 C 212.695312 97.3125 214.355469 98.339844 214.355469 99.851562 C 214.355469 100.925781 214.550781 101.074219 216.066406 101.074219 C 217.726562 101.074219 217.773438 101.027344 217.773438 99.21875 C 217.773438 96.484375 216.113281 94.679688 213.378906 94.433594 C 212.160156 94.335938 210.742188 94.433594 210.207031 94.679688 Z M 210.207031 94.679688 "/>
<path style=" stroke:none;fill-rule:nonzero;fill:rgb(0%,0%,0%);fill-opacity:1;" d="M 229.589844 94.972656 C 226.953125 96.09375 226.417969 98.144531 226.660156 106.054688 C 226.855469 113.671875 227.390625 114.992188 230.710938 116.113281 C 234.667969 117.429688 238.28125 115.039062 238.28125 111.035156 L 238.28125 108.886719 L 236.378906 108.886719 C 234.472656 108.886719 234.425781 108.9375 234.277344 110.691406 C 234.179688 112.257812 233.9375 112.597656 232.957031 112.695312 C 230.90625 112.988281 230.46875 111.71875 230.46875 105.273438 C 230.46875 102 230.664062 99.074219 230.90625 98.730469 C 231.152344 98.339844 231.933594 98.144531 232.714844 98.242188 C 233.839844 98.339844 234.179688 98.679688 234.277344 99.707031 C 234.425781 100.925781 234.617188 101.074219 236.328125 101.074219 L 238.183594 101.074219 L 237.9375 99.21875 C 237.597656 96.632812 236.964844 95.703125 235.105469 94.921875 C 233.007812 94.09375 231.640625 94.09375 229.589844 94.972656 Z M 229.589844 94.972656 "/>
<path style=" stroke:none;fill-rule:nonzero;fill:rgb(0%,0%,0%);fill-opacity:1;" d="M 181.152344 105.46875 L 181.152344 116.210938 L 185.058594 116.210938 L 185.058594 94.726562 L 181.152344 94.726562 Z M 181.152344 105.46875 "/>
<path style=" stroke:none;fill-rule:nonzero;fill:rgb(0%,0%,0%);fill-opacity:1;" d="M 187.5 96.433594 C 187.5 98.046875 187.597656 98.144531 189.210938 98.144531 L 190.917969 98.144531 L 191.015625 107.03125 L 191.164062 115.964844 L 193.261719 116.113281 L 195.3125 116.257812 L 195.3125 98.144531 L 197.023438 98.144531 C 198.632812 98.144531 198.730469 98.046875 198.730469 96.433594 L 198.730469 94.726562 L 187.5 94.726562 Z M 187.5 96.433594 "/>
<path style=" stroke:none;fill-rule:nonzero;fill:rgb(0%,0%,0%);fill-opacity:1;" d="M 201.464844 96.777344 C 201.515625 98.046875 201.757812 98.828125 202.101562 98.730469 C 202.832031 98.585938 202.734375 99.121094 201.902344 100.585938 C 200.976562 102.199219 201.027344 102.539062 202.050781 102.539062 C 203.269531 102.539062 205.566406 98.632812 205.566406 96.484375 C 205.566406 94.726562 205.566406 94.726562 203.515625 94.726562 L 201.414062 94.726562 Z M 201.464844 96.777344 "/>
<path style=" stroke:none;fill-rule:nonzero;fill:rgb(0%,0%,0%);fill-opacity:1;" d="M 241.210938 103.613281 C 241.210938 113.671875 241.457031 114.503906 244.285156 115.871094 C 246.777344 117.136719 249.5625 116.652344 251.222656 114.648438 C 252.441406 113.230469 252.441406 113.136719 252.441406 103.953125 L 252.441406 94.726562 L 248.535156 94.726562 L 248.4375 103.613281 L 248.289062 112.550781 L 245.363281 112.550781 L 245.214844 103.613281 L 245.117188 94.726562 L 241.210938 94.726562 Z M 241.210938 103.613281 "/>
<path style=" stroke:none;fill-rule:nonzero;fill:rgb(0%,0%,0%);fill-opacity:1;" d="M 255.859375 105.46875 L 255.859375 116.210938 L 265.1875 116.210938 L 265.039062 114.40625 L 264.894531 112.597656 L 262.355469 112.746094 L 259.765625 112.84375 L 259.765625 94.726562 L 255.859375 94.726562 Z M 255.859375 105.46875 "/>
<path style=" stroke:none;fill-rule:nonzero;fill:rgb(0%,0%,0%);fill-opacity:1;" d="M 265.625 96.433594 C 265.625 98.046875 265.722656 98.144531 267.335938 98.144531 L 269.042969 98.144531 L 269.042969 116.210938 L 272.949219 116.210938 L 272.949219 98.144531 L 274.804688 98.144531 C 276.613281 98.144531 276.660156 98.09375 276.660156 96.433594 L 276.660156 94.726562 L 265.625 94.726562 Z M 265.625 96.433594 "/>
<path style=" stroke:none;fill-rule:nonzero;fill:rgb(0%,0%,0%);fill-opacity:1;" d="M 278.90625 103.90625 C 279.101562 114.503906 279.347656 115.285156 282.8125 116.257812 C 285.792969 117.042969 288.527344 116.0625 289.648438 113.769531 C 290.378906 112.351562 290.527344 110.644531 290.527344 103.371094 L 290.527344 94.726562 L 286.621094 94.726562 L 286.523438 103.613281 L 286.378906 112.550781 L 285.105469 112.695312 C 282.859375 112.9375 282.667969 112.109375 282.8125 103.078125 L 282.960938 94.726562 L 278.710938 94.726562 Z M 278.90625 103.90625 "/>
<path style=" stroke:none;fill-rule:nonzero;fill:rgb(0%,0%,0%);fill-opacity:1;" d="M 293.796875 105.324219 L 293.898438 115.964844 L 295.652344 116.113281 L 297.363281 116.257812 L 297.363281 111.816406 C 297.363281 108.152344 297.511719 107.324219 298.144531 107.078125 C 299.902344 106.445312 300.539062 107.566406 300.78125 111.863281 L 301.023438 115.964844 L 302.976562 116.113281 L 304.929688 116.257812 L 304.785156 111.964844 C 304.636719 108.738281 304.394531 107.324219 303.710938 106.398438 C 302.929688 105.273438 302.878906 105.03125 303.515625 104.394531 C 305.175781 102.734375 304.929688 97.414062 303.125 95.703125 C 302.246094 94.875 301.367188 94.726562 297.898438 94.726562 L 293.699219 94.726562 Z M 300.195312 98.730469 C 300.832031 99.367188 300.976562 101.511719 300.390625 102.390625 C 300.195312 102.734375 299.464844 103.078125 298.828125 103.125 C 297.703125 103.273438 297.605469 103.125 297.460938 100.683594 C 297.3125 98.292969 297.363281 98.144531 298.4375 98.144531 C 299.070312 98.144531 299.851562 98.386719 300.195312 98.730469 Z M 300.195312 98.730469 "/>
<path style=" stroke:none;fill-rule:nonzero;fill:rgb(0%,0%,0%);fill-opacity:1;" d="M 308.105469 105.46875 L 308.105469 116.210938 L 317.871094 116.210938 L 317.871094 112.792969 L 312.011719 112.792969 L 312.011719 106.933594 L 316.894531 106.933594 L 316.894531 103.515625 L 312.011719 103.515625 L 312.011719 98.144531 L 317.871094 98.144531 L 317.871094 94.726562 L 308.105469 94.726562 Z M 308.105469 105.46875 "/>
<path style=" stroke:none;fill-rule:nonzero;fill:rgb(0%,0%,0%);fill-opacity:1;" d="M 408.933594 96.828125 C 407.03125 97.753906 405.125 99.558594 400.148438 105.175781 C 396.679688 109.132812 393.308594 113.28125 392.722656 114.40625 C 391.453125 116.75 391.261719 120.019531 392.285156 121.972656 C 393.894531 125.050781 397.414062 127.246094 399.804688 126.609375 C 401.074219 126.316406 401.074219 126.316406 400.339844 127.488281 C 399.609375 128.613281 399.660156 128.710938 401.121094 129.980469 L 402.636719 131.25 L 408.789062 123.875 L 414.941406 116.550781 L 411.179688 113.476562 C 407.179688 110.203125 407.128906 110.203125 405.175781 112.890625 L 404.199219 114.304688 L 405.519531 115.722656 L 406.835938 117.089844 L 404.441406 119.578125 C 401.855469 122.265625 400.488281 122.65625 398.535156 121.289062 C 395.898438 119.433594 397.507812 116.652344 407.375 106.296875 C 412.160156 101.269531 413.234375 100.734375 415.039062 102.539062 C 416.359375 103.859375 416.257812 104.933594 414.792969 106.984375 L 413.527344 108.644531 L 415.625 110.449219 C 416.796875 111.472656 417.824219 112.304688 417.96875 112.304688 C 418.113281 112.304688 418.945312 111.230469 419.871094 109.863281 C 423 105.273438 422.21875 100.832031 417.625 97.558594 C 414.84375 95.507812 412.109375 95.3125 408.933594 96.828125 Z M 408.933594 96.828125 "/>
<path style=" stroke:none;fill-rule:nonzero;fill:rgb(0%,0%,0%);fill-opacity:1;" d="M 152.34375 105.226562 L 152.34375 107.421875 L 172.851562 107.421875 L 172.851562 103.027344 L 152.34375 103.027344 Z M 152.34375 105.226562 "/>
<path style=" stroke:none;fill-rule:nonzero;fill:rgb(0%,0%,0%);fill-opacity:1;" d="M 342.820312 122.460938 C 341.113281 124.511719 335.644531 130.808594 330.613281 136.476562 C 313.183594 156.105469 303.710938 167.1875 303.710938 168.066406 C 303.710938 169.578125 305.761719 169.09375 310.109375 166.453125 C 314.550781 163.820312 321.730469 158.496094 325.683594 154.933594 C 327.050781 153.710938 328.222656 152.78125 328.320312 152.878906 C 328.417969 152.980469 327.6875 155.714844 326.609375 158.933594 C 325.585938 162.160156 324.804688 164.792969 324.855469 164.84375 C 324.902344 164.890625 329.25 163.234375 334.472656 161.132812 C 347.414062 156.007812 346.972656 156.054688 343.699219 159.472656 C 338.71875 164.699219 332.519531 171.875 332.519531 172.363281 C 332.519531 172.605469 333.691406 172.851562 335.109375 172.898438 C 339.453125 172.949219 349.902344 174.121094 349.121094 174.464844 C 348.585938 174.707031 338.132812 178.417969 329.640625 181.445312 C 329.199219 181.589844 330.859375 183.007812 333.839844 185.058594 C 336.523438 186.914062 339.015625 188.769531 339.355469 189.210938 C 339.941406 189.890625 339.894531 189.988281 338.820312 189.746094 C 325.585938 186.863281 319.1875 185.890625 313.136719 185.839844 C 304.6875 185.789062 304.199219 186.277344 310.15625 188.722656 C 323.976562 194.433594 336.765625 200.929688 351.5625 209.765625 C 355.761719 212.253906 359.519531 214.453125 359.960938 214.601562 C 361.378906 215.136719 361.425781 213.328125 360.011719 210.546875 C 358.789062 208.15625 357.519531 206.496094 351.125 199.21875 L 349.21875 196.972656 L 356.105469 198.09375 C 369.191406 200.242188 381.101562 200.046875 381.101562 197.753906 C 381.101562 196.140625 361.425781 184.765625 356.59375 183.496094 C 355.417969 183.203125 354.492188 182.8125 354.492188 182.617188 C 354.492188 182.421875 356.984375 180.761719 360.011719 178.957031 C 368.015625 174.070312 379.148438 166.503906 382.957031 163.28125 C 387.011719 159.914062 387.15625 158.839844 383.542969 159.082031 C 381.445312 159.226562 363.523438 161.425781 356.25 162.402344 L 353.859375 162.746094 L 360.644531 154.980469 C 370.75 143.40625 374.363281 139.109375 379.589844 132.175781 C 383.398438 127.097656 384.230469 125.78125 383.742188 125.195312 C 383.449219 124.804688 382.8125 124.511719 382.375 124.511719 C 381.25 124.511719 366.015625 132.03125 359.082031 135.988281 C 355.90625 137.84375 350.046875 141.355469 346.09375 143.847656 C 342.089844 146.339844 338.867188 148.292969 338.867188 148.242188 C 338.867188 148.144531 340.28125 145.3125 342.039062 141.894531 C 345.800781 134.472656 347.121094 130.46875 347.511719 125.195312 C 347.800781 120.851562 347.511719 118.652344 346.53125 118.703125 C 346.238281 118.703125 344.53125 120.410156 342.820312 122.460938 Z M 342.820312 122.460938 "/>
<path style=" stroke:none;fill-rule:nonzero;fill:rgb(0%,0%,0%);fill-opacity:1;" d="M 313.328125 126.855469 C 312.5 127.78125 308.203125 155.078125 308.835938 155.664062 C 309.960938 156.785156 316.941406 143.894531 317.921875 138.964844 C 318.847656 134.230469 317.628906 129.148438 315.089844 126.808594 C 314.160156 126.023438 314.109375 126.023438 313.328125 126.855469 Z M 313.328125 126.855469 "/>
<path style=" stroke:none;fill-rule:nonzero;fill:rgb(0%,0%,0%);fill-opacity:1;" d="M 228.953125 133.984375 C 226.464844 134.667969 222.800781 136.621094 221.582031 137.988281 C 221.140625 138.527344 216.453125 146.484375 211.179688 155.761719 C 205.90625 165.039062 201.171875 172.949219 200.636719 173.339844 C 200.097656 173.777344 198.339844 174.65625 196.679688 175.292969 C 193.015625 176.757812 188.429688 180.859375 186.769531 184.082031 C 185.203125 187.15625 183.9375 193.503906 184.277344 196.386719 C 184.570312 198.582031 184.523438 198.730469 182.765625 200.046875 C 175.585938 205.515625 173.972656 208.347656 173.484375 216.359375 L 173.191406 221.140625 L 170.800781 223.191406 C 166.453125 226.855469 164.550781 231.054688 164.550781 237.15625 C 164.550781 242.285156 166.699219 251.125 173.925781 275.535156 L 176.90625 285.691406 L 175.730469 286.914062 C 175.097656 287.597656 172.65625 289.941406 170.3125 292.039062 L 166.113281 295.945312 L 165.285156 293.359375 C 164.0625 289.40625 163.71875 278.761719 164.746094 275.292969 C 166.308594 269.875 165.625 268.554688 160.5 267.089844 C 143.261719 262.0625 134.082031 257.863281 113.867188 245.800781 C 104.296875 240.039062 101.855469 238.71875 98.386719 237.597656 C 96.140625 236.816406 95.847656 236.816406 93.847656 237.597656 C 89.5 239.257812 87.453125 244.578125 89.941406 247.851562 C 90.527344 248.632812 93.261719 251.660156 95.945312 254.636719 C 102.492188 261.769531 104.445312 264.308594 107.324219 269.386719 C 111.765625 277.199219 114.0625 284.863281 115.476562 296.386719 C 116.113281 301.757812 116.457031 308.105469 116.0625 308.105469 C 116.015625 308.105469 113.136719 306.691406 109.71875 304.929688 C 102.441406 301.269531 98.828125 300 96.925781 300.488281 C 95.558594 300.832031 89.699219 306.105469 88.769531 307.765625 C 88.085938 309.082031 88.914062 309.765625 93.945312 312.15625 C 96.386719 313.328125 99.660156 315.089844 101.171875 316.113281 C 103.464844 317.578125 111.085938 323.535156 113.625 325.878906 C 114.941406 327.050781 111.964844 341.453125 107.472656 355.664062 C 105.175781 362.890625 105.03125 363.523438 105.710938 364.597656 C 106.152344 365.234375 106.738281 365.722656 107.128906 365.722656 C 109.230469 365.722656 112.988281 363.867188 117.824219 360.5 C 120.800781 358.398438 124.511719 355.90625 125.976562 354.980469 C 129.101562 353.078125 131.835938 350.632812 131.835938 349.804688 C 131.835938 349.464844 131.25 348.78125 130.566406 348.292969 L 129.296875 347.363281 L 130.566406 340.917969 C 131.25 337.355469 131.835938 334.035156 131.835938 333.496094 C 131.835938 332.960938 131.933594 332.519531 132.03125 332.519531 C 132.761719 332.519531 141.453125 336.574219 147.3125 339.601562 C 154.980469 343.554688 162.597656 348.386719 170.359375 354.152344 C 176.953125 359.082031 177.097656 359.082031 183.007812 354.199219 C 188.328125 349.753906 188.722656 348.878906 186.816406 345.703125 C 182.765625 338.867188 173.730469 318.796875 170.410156 309.230469 L 168.40625 303.464844 L 173.925781 298.242188 C 176.953125 295.359375 179.589844 292.96875 179.832031 292.96875 C 180.03125 292.96875 180.175781 293.3125 180.175781 293.699219 C 180.175781 294.140625 180.8125 295.851562 181.542969 297.511719 C 184.617188 304.296875 193.554688 309.324219 200.878906 308.398438 C 204.101562 307.957031 204.003906 307.617188 200.34375 306.445312 C 195.019531 304.6875 190.183594 299.804688 186.769531 292.726562 C 183.203125 285.398438 178.710938 271.339844 173.878906 252.441406 C 169.679688 235.9375 169.921875 232.371094 175.636719 227.050781 C 179.296875 223.632812 183.203125 220.996094 186.132812 219.921875 C 189.941406 218.605469 191.261719 218.945312 200.046875 223.4375 C 204.542969 225.78125 209.960938 228.660156 212.0625 229.882812 L 215.820312 232.128906 L 221.191406 241.015625 C 227.636719 251.660156 228.515625 253.46875 228.515625 256.347656 C 228.515625 260.742188 225.097656 263.769531 221.289062 262.742188 C 217.675781 261.71875 213.183594 258.542969 207.46875 252.929688 C 204.347656 249.855469 201.222656 246.582031 200.535156 245.703125 L 199.269531 244.089844 L 196.191406 245.164062 C 193.847656 245.949219 192.335938 246.144531 189.84375 245.949219 C 187.988281 245.851562 186.523438 245.898438 186.523438 246.144531 C 186.523438 246.679688 190.234375 249.609375 196.335938 253.957031 C 204.589844 259.816406 206.640625 262.988281 208.054688 272.167969 C 208.640625 275.78125 208.398438 286.621094 207.714844 288.332031 C 207.519531 288.867188 208.742188 287.792969 210.449219 285.984375 C 213.378906 282.8125 217.285156 279.980469 218.214844 280.371094 C 218.652344 280.519531 216.308594 295.066406 214.355469 304.34375 C 213.71875 307.277344 212.792969 310.304688 212.207031 311.183594 C 211.621094 312.011719 209.328125 314.015625 207.03125 315.625 C 203.175781 318.359375 192.628906 328.027344 193.066406 328.46875 C 193.164062 328.5625 195.949219 327.980469 199.21875 327.148438 C 202.488281 326.316406 205.273438 325.734375 205.371094 325.828125 C 205.761719 326.222656 202.539062 331.738281 195.410156 342.871094 C 187.011719 355.957031 186.035156 357.765625 186.035156 359.960938 C 186.035156 360.839844 186.570312 363.574219 187.257812 365.964844 C 187.9375 368.410156 188.476562 370.507812 188.476562 370.703125 C 188.476562 370.898438 186.328125 369.96875 183.738281 368.703125 C 171.679688 362.792969 156.300781 357.910156 149.5625 357.910156 C 140.867188 357.910156 132.667969 361.816406 121.824219 371.144531 C 116.992188 375.242188 109.03125 383.59375 108.058594 385.496094 C 107.179688 387.15625 108.839844 389.648438 110.691406 389.648438 C 110.9375 389.648438 114.40625 387.648438 118.457031 385.253906 C 131.738281 377.195312 139.796875 375.242188 151.027344 377.195312 C 155.125 377.929688 162.207031 379.929688 163.527344 380.808594 C 164.113281 381.152344 163.917969 381.882812 162.453125 384.910156 C 159.179688 391.847656 153.859375 398.78125 146.828125 405.273438 C 143.457031 408.398438 143.40625 408.496094 143.75 410.351562 C 144.238281 412.9375 146.09375 414.746094 147.851562 414.304688 C 149.707031 413.867188 155.714844 410.058594 159.914062 406.6875 C 164.992188 402.585938 172.410156 394.628906 175.585938 389.84375 L 178.269531 385.789062 L 180.566406 386.667969 C 186.328125 388.964844 193.117188 393.800781 198.195312 399.167969 L 201.171875 402.394531 L 204.640625 401.121094 C 209.179688 399.511719 209.472656 399.511719 209.472656 401.5625 C 209.472656 403.808594 210.886719 404.785156 214.207031 404.785156 C 216.066406 404.785156 220.507812 403.613281 230.613281 400.390625 C 238.230469 398 244.675781 395.996094 244.96875 395.996094 C 245.558594 395.996094 249.65625 405.078125 251.074219 409.519531 C 251.660156 411.378906 252.34375 412.644531 252.882812 412.839844 C 253.808594 413.132812 263.234375 409.277344 264.746094 408.007812 C 265.28125 407.519531 265.625 406.59375 265.625 405.566406 C 265.625 403.417969 262.84375 395.460938 259.277344 387.449219 C 257.03125 382.375 256.394531 380.371094 256.101562 377.488281 C 255.714844 373.730469 255.664062 373.632812 252.34375 370.949219 C 251.074219 369.921875 245.410156 361.378906 245.800781 360.984375 C 245.898438 360.890625 248.976562 361.328125 252.636719 361.914062 C 258.449219 362.890625 259.328125 363.183594 259.523438 364.011719 C 259.621094 364.550781 260.496094 368.410156 261.476562 372.558594 C 263.328125 380.324219 268.507812 406.054688 269.53125 412.597656 C 270.167969 416.601562 270.65625 417.480469 272.019531 417.480469 C 273.292969 417.480469 281.59375 413.28125 281.835938 412.546875 C 281.933594 412.207031 281.640625 410.15625 281.152344 408.007812 C 280.175781 403.613281 274.511719 369.871094 274.316406 367.1875 C 274.21875 366.257812 274.414062 365.378906 274.660156 365.285156 C 274.953125 365.183594 278.90625 365.476562 283.445312 365.964844 C 291.746094 366.84375 291.746094 366.84375 294.042969 365.820312 C 297.3125 364.40625 299.804688 360.105469 299.804688 355.90625 C 299.804688 354.445312 299.414062 353.566406 298.097656 352.097656 L 296.386719 350.195312 L 297.117188 344.679688 C 297.511719 341.601562 298.097656 337.402344 298.390625 335.300781 L 298.925781 331.542969 L 301.21875 331.496094 C 302.441406 331.496094 305.566406 331.203125 308.105469 330.859375 C 310.644531 330.515625 312.792969 330.273438 312.890625 330.320312 C 313.085938 330.515625 309.617188 343.214844 306.640625 353.273438 C 305.324219 357.8125 304.199219 362.109375 304.199219 362.84375 C 304.199219 364.304688 307.324219 367.480469 311.570312 370.265625 C 316.40625 373.484375 315.476562 373.925781 326.707031 362.695312 C 332.175781 357.179688 338.867188 350.632812 341.503906 348.144531 L 346.339844 343.554688 L 344.972656 340.96875 C 343.359375 337.839844 340.773438 335.449219 339.0625 335.449219 C 336.71875 335.449219 334.277344 337.402344 328.125 344.238281 C 324.753906 347.949219 322.023438 350.925781 321.972656 350.878906 C 321.828125 350.734375 327.296875 328.761719 327.589844 328.125 C 328.074219 327.246094 332.273438 326.027344 338.769531 324.949219 C 341.359375 324.511719 343.554688 324.074219 343.605469 324.023438 C 343.800781 323.875 342.675781 312.695312 342.332031 311.328125 C 341.746094 308.9375 340.917969 308.738281 335.351562 309.863281 C 332.566406 310.449219 330.273438 310.839844 330.175781 310.789062 C 330.128906 310.742188 329.296875 306.984375 328.367188 302.441406 C 327.441406 297.949219 326.414062 293.992188 326.171875 293.75 C 325.585938 293.164062 314.890625 290.578125 312.988281 290.578125 C 311.132812 290.527344 309.667969 291.796875 309.082031 293.992188 C 308.59375 295.75 308.738281 296.582031 310.253906 301.417969 C 312.0625 307.078125 313.722656 314.355469 313.328125 314.746094 C 312.9375 315.136719 307.078125 315.917969 304.296875 315.917969 L 301.710938 315.917969 L 302.003906 314.308594 C 302.148438 313.476562 303.027344 307.8125 303.957031 301.757812 C 307.421875 278.90625 307.570312 278.125 308.496094 277.441406 C 308.9375 277.101562 311.964844 275.148438 315.183594 273.144531 C 325.535156 266.648438 330.664062 260.351562 333.496094 250.636719 C 334.960938 245.65625 335.15625 242.625 334.277344 239.550781 C 333.007812 235.203125 329.589844 232.078125 324.023438 230.175781 L 321.777344 229.394531 L 321.777344 226.511719 C 321.777344 222.800781 320.898438 220.753906 318.503906 218.847656 C 317.234375 217.871094 316.210938 216.503906 315.675781 214.988281 C 313.964844 210.59375 311.375 206.789062 307.371094 202.882812 C 303.464844 199.023438 303.371094 198.925781 303.027344 196.042969 C 302.832031 194.484375 302.296875 192.480469 301.855469 191.648438 C 301.171875 190.476562 298.535156 188.671875 296.339844 187.890625 C 296.144531 187.792969 296.289062 184.765625 296.632812 181.152344 C 297.703125 171.046875 297.703125 168.164062 296.484375 166.503906 C 295.507812 165.234375 295.507812 165.039062 296.191406 162.792969 C 297.070312 159.960938 297.167969 155.46875 296.4375 153.171875 C 295.75 151.121094 293.359375 148.78125 290.773438 147.609375 C 289.011719 146.828125 287.402344 146.777344 275.339844 146.875 L 261.914062 147.019531 L 259.472656 145.410156 C 255.03125 142.382812 239.992188 134.816406 237.011719 134.082031 C 233.496094 133.15625 231.984375 133.15625 228.953125 133.984375 Z M 238.671875 141.113281 C 240.769531 141.894531 245.949219 144.675781 250.242188 147.214844 C 254.542969 149.753906 258.835938 152.148438 259.765625 152.441406 C 260.789062 152.78125 266.941406 153.125 275.195312 153.273438 C 285.792969 153.515625 289.113281 153.710938 289.699219 154.246094 C 290.773438 155.078125 290.820312 159.179688 289.792969 161.132812 C 288.671875 163.28125 287.695312 163.574219 281.738281 163.574219 C 275.339844 163.574219 274.5625 163.820312 269.09375 167.917969 C 261.621094 173.4375 254.636719 174.316406 247.21875 170.652344 C 243.796875 168.945312 238.671875 164.597656 236.621094 161.621094 C 235.839844 160.449219 235.839844 160.886719 236.085938 170.996094 C 236.277344 176.855469 236.230469 181.640625 236.035156 181.640625 C 235.890625 181.640625 234.132812 180.175781 232.226562 178.320312 C 225.632812 172.117188 223.09375 170.945312 215.480469 170.558594 C 212.695312 170.410156 210.449219 170.066406 210.449219 169.871094 C 210.449219 169.484375 212.304688 166.210938 220.359375 152.34375 C 226.125 142.480469 226.269531 142.285156 228.90625 140.867188 C 231.933594 139.308594 234.132812 139.355469 238.671875 141.113281 Z M 289.941406 170.457031 C 290.773438 170.800781 291.015625 171.238281 291.015625 172.511719 C 291.015625 174.558594 290.578125 175 289.597656 174.121094 C 287.304688 172.070312 284.277344 173.242188 283.203125 176.5625 C 282.667969 178.125 282.714844 178.464844 283.546875 179.636719 C 284.863281 181.347656 287.839844 182.519531 289.113281 181.738281 C 289.941406 181.203125 290.039062 181.296875 290.039062 182.570312 C 290.039062 183.300781 289.890625 184.960938 289.746094 186.183594 C 289.453125 188.328125 289.40625 188.378906 287.890625 188.183594 C 281.445312 187.355469 275.683594 186.476562 275.488281 186.328125 C 275.246094 186.035156 276.707031 170.558594 277.101562 169.921875 C 277.488281 169.285156 287.988281 169.726562 289.941406 170.457031 Z M 220.753906 177.539062 C 224.367188 179.34375 230.710938 184.910156 238.183594 192.722656 C 247.65625 202.6875 250.195312 205.613281 251.464844 208.253906 C 252.832031 211.035156 252.78125 214.699219 251.316406 216.847656 C 250.195312 218.507812 244.726562 222.707031 243.945312 222.511719 C 243.703125 222.414062 242.1875 220.410156 240.527344 218.019531 C 238.332031 214.792969 236.277344 212.597656 232.765625 209.667969 C 226.707031 204.542969 212.402344 194.726562 208.640625 193.066406 C 203.5625 190.769531 197.265625 191.113281 192.480469 193.894531 C 191.601562 194.382812 190.769531 194.824219 190.625 194.824219 C 189.550781 194.824219 192.335938 186.769531 194.140625 184.617188 C 196.140625 182.324219 203.269531 178.664062 208.59375 177.246094 C 212.792969 176.074219 218.214844 176.21875 220.753906 177.539062 Z M 249.023438 177.246094 C 254.394531 178.90625 258.742188 179.003906 264.308594 177.539062 C 266.894531 176.855469 269.140625 176.269531 269.289062 176.269531 C 269.628906 176.269531 269.582031 182.617188 269.238281 183.886719 C 268.996094 184.816406 268.800781 184.863281 266.308594 184.472656 C 264.207031 184.128906 263.28125 184.230469 262.0625 184.816406 C 260.203125 185.691406 258.789062 187.792969 258.789062 189.648438 C 258.789062 190.332031 258.59375 190.917969 258.300781 190.917969 C 257.175781 190.917969 252.296875 193.066406 251.023438 194.089844 L 249.65625 195.261719 L 247.753906 193.214844 C 243.210938 188.328125 243.457031 188.917969 244.285156 185.449219 C 244.726562 183.738281 245.214844 181.003906 245.410156 179.296875 C 245.605469 177.636719 245.75 176.269531 245.800781 176.269531 C 245.800781 176.269531 247.265625 176.710938 249.023438 177.246094 Z M 274.21875 190.96875 C 276.953125 191.210938 281.59375 191.75 284.472656 192.136719 C 287.402344 192.53125 290.917969 192.96875 292.238281 193.164062 C 293.605469 193.308594 295.164062 193.796875 295.800781 194.140625 C 297.019531 194.921875 297.265625 196.679688 296.144531 197.070312 C 295.410156 197.363281 276.464844 194.875 269.335938 193.554688 C 267.234375 193.164062 265.429688 192.871094 265.332031 192.871094 C 265.234375 192.871094 265.136719 192.1875 265.136719 191.355469 C 265.136719 189.84375 265.136719 189.796875 267.1875 190.136719 C 268.308594 190.332031 271.484375 190.675781 274.21875 190.96875 Z M 208.253906 199.902344 C 212.792969 202.148438 226.804688 212.207031 231.25 216.453125 C 235.792969 220.703125 238.039062 224.121094 239.796875 229.296875 C 242.382812 236.863281 242.871094 243.996094 241.015625 246.824219 C 239.992188 248.390625 237.351562 250.34375 235.742188 250.730469 C 234.519531 251.074219 234.230469 250.828125 232.566406 248.097656 C 223 232.519531 220.359375 228.515625 218.652344 226.90625 C 217.578125 225.925781 214.453125 224.023438 211.71875 222.65625 C 209.035156 221.339844 203.953125 218.75 200.441406 216.941406 C 194.582031 213.914062 193.847656 213.671875 190.382812 213.476562 C 187.109375 213.28125 186.277344 213.425781 183.835938 214.550781 C 182.277344 215.234375 180.8125 215.820312 180.566406 215.820312 C 179.589844 215.820312 180.46875 211.035156 181.785156 209.035156 C 183.789062 206.007812 194.335938 199.414062 199.023438 198.289062 C 201.808594 197.609375 204.394531 198.046875 208.253906 199.902344 Z M 280.175781 200.683594 C 295.164062 202.394531 298.4375 203.367188 303.5625 207.761719 C 305.46875 209.375 309.617188 216.453125 309.03125 217.039062 C 308.789062 217.234375 259.035156 209.667969 257.957031 209.277344 C 257.03125 208.886719 258.449219 204.734375 260.058594 203.074219 C 263.527344 199.414062 266.210938 199.121094 280.175781 200.683594 Z M 269.289062 216.503906 C 275.632812 217.578125 285.300781 218.992188 309.082031 222.460938 C 312.15625 222.898438 314.988281 223.484375 315.332031 223.78125 C 316.164062 224.414062 316.0625 226.320312 315.183594 227.050781 C 314.648438 227.492188 313.523438 227.585938 311.132812 227.34375 C 305.957031 226.804688 277.832031 222.753906 270.066406 221.433594 C 266.210938 220.753906 262.0625 220.214844 260.890625 220.214844 L 258.789062 220.214844 L 258.789062 217.871094 C 258.789062 215.085938 259.035156 214.746094 260.742188 215.039062 C 261.425781 215.1875 265.28125 215.867188 269.289062 216.503906 Z M 278.125 227.785156 C 303.808594 231.199219 308.105469 231.886719 309.03125 232.519531 L 310.058594 233.25 L 309.03125 234.179688 C 304.980469 237.84375 302.878906 246.730469 303.808594 256.347656 C 304.296875 261.816406 304.25 262.253906 302.539062 272.460938 C 300.683594 283.398438 297.070312 305.46875 294.140625 323.976562 C 291.503906 340.917969 289.5 350.585938 288.625 350.585938 C 287.9375 350.585938 258.9375 346.679688 256.347656 346.238281 C 249.464844 345.019531 249.363281 344.921875 250 340.527344 C 250.683594 335.546875 258.742188 286.816406 260.496094 276.855469 C 261.425781 271.628906 263.28125 260.742188 264.601562 252.683594 C 267.335938 236.328125 268.015625 233.300781 269.824219 229.589844 C 271.242188 226.707031 270.800781 226.804688 278.125 227.785156 Z M 323.828125 237.351562 C 328.953125 239.941406 329.394531 245.070312 325.148438 253.855469 C 322.703125 258.886719 318.457031 263.378906 313.230469 266.453125 C 311.375 267.578125 309.71875 268.40625 309.617188 268.308594 C 309.570312 268.214844 309.71875 266.601562 310.058594 264.695312 C 310.351562 262.792969 310.496094 260.59375 310.304688 259.816406 C 309.765625 257.324219 309.910156 248.925781 310.546875 245.851562 C 311.621094 240.722656 314.160156 237.207031 317.285156 236.523438 C 318.015625 236.378906 318.847656 236.183594 319.089844 236.085938 C 319.875 235.839844 321.875 236.378906 323.828125 237.351562 Z M 136.523438 273.195312 L 144.824219 277.199219 L 145.460938 280.8125 C 147.460938 292.089844 152.539062 309.128906 157.667969 321.730469 C 159.03125 325.097656 160.15625 327.832031 160.15625 327.882812 C 160.15625 327.929688 157.421875 326.609375 154.101562 324.902344 C 148.535156 322.121094 135.988281 316.894531 134.910156 316.894531 C 134.621094 316.894531 134.277344 313.574219 134.128906 309.421875 C 133.449219 294.386719 130.808594 282.324219 125.730469 271.679688 L 123.632812 267.1875 L 125.929688 268.164062 C 127.148438 268.703125 131.933594 270.949219 136.523438 273.195312 Z M 232.421875 277.148438 C 231.492188 283.398438 225.632812 318.457031 223.046875 333.253906 C 221.875 339.988281 221.679688 340.332031 219.042969 339.648438 L 217.921875 339.355469 L 218.800781 332.714844 C 219.285156 329.054688 220.460938 321.828125 221.386719 316.699219 C 222.363281 311.570312 224.21875 300.78125 225.585938 292.726562 C 227.292969 282.667969 228.417969 277.292969 229.199219 275.632812 C 230.324219 273.195312 232.859375 269.773438 233.25 270.214844 C 233.351562 270.3125 233.007812 273.4375 232.421875 277.148438 Z M 230.226562 346.191406 C 239.355469 348.046875 250 350.144531 253.90625 350.832031 C 261.375 352.097656 289.84375 355.957031 292.140625 355.957031 C 293.261719 355.957031 293.457031 356.152344 293.457031 357.371094 C 293.457031 359.230469 292.285156 360.351562 290.378906 360.351562 C 288.132812 360.351562 274.460938 358.691406 262.449219 356.984375 C 247.167969 354.785156 214.308594 348.679688 212.453125 347.707031 C 211.914062 347.414062 211.328125 346.726562 211.179688 346.191406 C 210.839844 345.066406 212.0625 342.773438 213.035156 342.773438 C 213.328125 342.773438 221.09375 344.285156 230.226562 346.191406 Z M 205.273438 346.777344 C 205.078125 347.949219 205.320312 348.828125 206.152344 350.097656 C 208.15625 353.078125 209.714844 353.710938 219.578125 355.664062 C 224.609375 356.691406 229.246094 357.8125 229.882812 358.203125 C 230.710938 358.738281 230.957031 359.375 230.957031 361.035156 C 230.957031 362.15625 231.25 364.160156 231.640625 365.429688 C 232.324219 367.722656 232.324219 367.773438 231.296875 367.53125 C 216.847656 364.160156 211.867188 363.136719 211.425781 363.574219 C 210.644531 364.355469 210.058594 371.042969 209.914062 380.078125 C 209.863281 384.523438 209.667969 388.035156 209.472656 387.84375 C 209.277344 387.648438 207.324219 381.882812 205.078125 375.050781 C 202.832031 368.210938 200.441406 361.523438 199.753906 360.105469 L 198.488281 357.617188 L 201.855469 351.417969 C 203.710938 348 205.273438 345.214844 205.371094 345.214844 C 205.421875 345.214844 205.371094 345.945312 205.273438 346.777344 Z M 232.421875 380.617188 C 240.089844 381.882812 240.378906 381.984375 241.308594 384.421875 L 242.089844 386.523438 L 237.597656 387.449219 C 235.15625 387.941406 231.296875 388.964844 229.050781 389.746094 C 226.757812 390.480469 224.753906 391.113281 224.609375 391.113281 C 224.367188 391.113281 223.144531 382.324219 223.144531 380.46875 C 223.144531 379.636719 226.660156 379.6875 232.421875 380.617188 Z M 232.421875 380.617188 "/>
<path style=" stroke:none;fill-rule:nonzero;fill:rgb(0%,0%,0%);fill-opacity:1;" d="M 121.238281 190.675781 C 116.75 191.992188 114.746094 194.875 115.476562 198.925781 C 115.671875 200 115.964844 210.058594 116.164062 221.191406 L 116.457031 241.457031 L 120.996094 243.015625 C 123.484375 243.898438 125.828125 244.484375 126.222656 244.335938 C 126.609375 244.140625 127.003906 243.457031 127.003906 242.722656 C 127.050781 242.042969 127.195312 237.257812 127.390625 232.179688 L 127.683594 222.898438 L 130.324219 226.804688 C 134.230469 232.566406 142.722656 243.652344 145.410156 246.53125 C 149.167969 250.535156 150.78125 249.949219 155.566406 242.917969 L 158.347656 238.816406 L 157.128906 236.964844 C 156.445312 235.9375 153.953125 232.664062 151.613281 229.738281 C 144.289062 220.507812 136.28125 208.496094 130.175781 197.507812 C 128.371094 194.289062 126.710938 191.503906 126.515625 191.261719 C 125.636719 190.382812 123.191406 190.089844 121.238281 190.675781 Z M 121.238281 190.675781 "/>
<path style=" stroke:none;fill-rule:nonzero;fill:rgb(0%,0%,0%);fill-opacity:1;" d="M 363.378906 231.296875 C 362.792969 231.785156 361.472656 234.230469 360.351562 236.71875 C 356.054688 246.335938 347.21875 260.351562 339.941406 269.042969 C 337.792969 271.628906 333.15625 276.515625 329.589844 279.933594 C 325.976562 283.398438 323.289062 286.378906 323.535156 286.574219 C 323.78125 286.816406 326.269531 288.476562 329.054688 290.285156 C 333.839844 293.359375 334.226562 293.503906 335.402344 292.871094 C 338.820312 291.113281 358.398438 269.53125 358.398438 267.527344 C 358.398438 267.285156 358.546875 267.089844 358.789062 267.089844 C 358.984375 267.089844 358.984375 269.582031 358.789062 272.558594 C 358.300781 280.761719 358.152344 288.527344 358.496094 288.867188 C 359.082031 289.40625 362.550781 290.039062 365.378906 290.039062 C 367.824219 290.039062 368.261719 289.890625 368.652344 288.917969 C 368.898438 288.332031 369.675781 282.566406 370.363281 276.121094 C 374.855469 233.886719 374.804688 234.570312 373.339844 233.007812 C 371.335938 230.761719 365.234375 229.738281 363.378906 231.296875 Z M 363.378906 231.296875 "/>
<path style=" stroke:none;fill-rule:nonzero;fill:rgb(0%,0%,0%);fill-opacity:1;" d="M 395.753906 261.132812 C 391.894531 263.574219 381.789062 275.632812 378.710938 281.492188 C 377.003906 284.71875 377.097656 285.742188 379.199219 287.597656 C 383.25 291.113281 384.960938 290.722656 389.0625 285.207031 C 392.527344 280.519531 395.703125 277.292969 400.535156 273.78125 C 404.394531 270.949219 405.273438 269.675781 405.273438 267.042969 C 405.273438 265.1875 403.710938 262.15625 402.394531 261.328125 C 400.488281 260.203125 397.363281 260.109375 395.753906 261.132812 Z M 395.753906 261.132812 "/>
<path style=" stroke:none;fill-rule:nonzero;fill:rgb(0%,0%,0%);fill-opacity:1;" d="M 388.476562 293.605469 C 384.472656 296.191406 376.171875 304.636719 370.898438 311.523438 C 368.554688 314.597656 366.457031 317.1875 366.308594 317.234375 C 366.113281 317.335938 364.648438 314.695312 363.039062 311.476562 C 361.425781 308.203125 359.472656 305.03125 358.738281 304.394531 C 356.933594 302.878906 354.539062 302.199219 349.753906 301.90625 C 345.265625 301.609375 344.480469 301.90625 343.992188 304.25 C 343.699219 305.417969 344.433594 307.277344 347.707031 314.109375 C 351.660156 322.410156 355.957031 332.273438 355.957031 333.054688 C 355.957031 333.300781 353.566406 337.304688 350.683594 341.894531 C 342.625 354.785156 337.792969 362.597656 334.914062 367.382812 C 332.46875 371.53125 332.375 371.777344 333.054688 372.996094 L 333.789062 374.269531 L 348.878906 374.269531 L 350.832031 371.238281 C 359.910156 357.078125 364.550781 350.097656 364.746094 350.097656 C 365.089844 350.097656 367.042969 353.371094 372.070312 362.550781 C 376.757812 371.09375 380.910156 377.488281 382.910156 379.148438 C 386.132812 381.882812 387.941406 381.347656 393.945312 375.730469 C 399.707031 370.363281 399.753906 370.65625 391.0625 359.765625 C 386.476562 354.003906 381.054688 345.847656 377.246094 339.015625 C 374.023438 333.300781 373.976562 334.179688 378.371094 327.882812 C 385.789062 317.285156 393.996094 308.203125 403.222656 300.4375 C 408.933594 295.605469 409.621094 294.433594 407.859375 292.871094 C 407.179688 292.238281 405.320312 292.039062 399.21875 291.894531 L 391.453125 291.699219 Z M 388.476562 293.605469 "/>
<path style=" stroke:none;fill-rule:nonzero;fill:rgb(0%,0%,0%);fill-opacity:1;" d="M 283.347656 374.269531 C 282.910156 375.4375 284.472656 394.726562 286.425781 411.867188 C 286.964844 416.550781 286.867188 416.503906 292.625 416.503906 C 299.558594 416.503906 299.558594 416.503906 299.171875 410.300781 C 298.972656 407.617188 298.390625 402.148438 297.851562 398.144531 C 297.3125 394.140625 296.730469 387.5 296.53125 383.398438 C 296.144531 373.683594 296.386719 373.976562 289.160156 373.632812 C 284.179688 373.4375 283.691406 373.484375 283.347656 374.269531 Z M 283.347656 374.269531 "/>
<path style=" stroke:none;fill-rule:nonzero;fill:rgb(0%,0%,0%);fill-opacity:1;" d="M 362.453125 376.757812 C 362.15625 377.589844 363.523438 383.449219 366.210938 392.675781 C 367.238281 396.140625 368.015625 398.925781 367.917969 398.925781 C 367.824219 398.925781 364.648438 394.773438 360.890625 389.695312 L 354.003906 380.421875 L 351.417969 380.175781 C 345.359375 379.542969 340.332031 379.542969 339.746094 380.222656 C 339.355469 380.714844 339.5 383.691406 340.28125 391.503906 C 340.820312 397.3125 341.554688 405.613281 341.847656 409.914062 C 342.527344 419.679688 342.332031 419.433594 349.121094 419.433594 C 354.6875 419.433594 355.761719 418.898438 355.273438 416.308594 C 354.394531 411.914062 353.953125 408.058594 354.101562 405.175781 L 354.246094 401.953125 L 363.964844 414.890625 L 373.632812 427.832031 L 375.4375 427.589844 C 376.417969 427.492188 379.148438 426.316406 381.496094 425.050781 C 385.695312 422.804688 385.742188 422.753906 385.742188 420.898438 C 385.742188 419.871094 385.109375 417.039062 384.277344 414.597656 C 380.566406 403.171875 376.953125 387.402344 376.953125 382.46875 C 376.953125 379.6875 375.050781 378.269531 369.777344 377.003906 C 364.503906 375.78125 362.84375 375.730469 362.453125 376.757812 Z M 362.453125 376.757812 "/>
<path style=" stroke:none;fill-rule:nonzero;fill:rgb(0%,0%,0%);fill-opacity:1;" d="M 309.421875 381.054688 C 305.078125 382.617188 302.097656 386.667969 300.730469 392.921875 C 298.828125 401.269531 304.738281 413.039062 311.863281 415.085938 C 314.746094 415.917969 320.65625 415.917969 324.21875 415.085938 C 333.789062 412.792969 338.378906 407.472656 338.769531 398.242188 C 339.015625 392.773438 338.425781 390.867188 335.695312 387.792969 C 331.640625 383.300781 323.4375 380.324219 315.089844 380.371094 C 312.988281 380.421875 310.449219 380.714844 309.421875 381.054688 Z M 321.828125 391.453125 C 325.097656 393.113281 326.660156 395.359375 326.660156 398.242188 C 326.660156 402.050781 323.289062 404.640625 319.042969 404.152344 C 316.210938 403.859375 314.503906 402.636719 313.136719 399.902344 C 311.375 396.484375 311.769531 391.015625 313.816406 390.480469 C 316.355469 389.84375 319.289062 390.1875 321.828125 391.453125 Z M 321.828125 391.453125 "/>
<path style=" stroke:none;fill-rule:nonzero;fill:rgb(0%,0%,0%);fill-opacity:1;" d="M 211.667969 408.984375 C 198.632812 410.300781 190.96875 411.425781 182.128906 413.378906 C 174.757812 415.039062 173.339844 415.625 173.339844 417.140625 C 173.339844 419.433594 179.101562 426.269531 181.003906 426.269531 C 181.640625 426.269531 184.71875 425.636719 187.890625 424.804688 C 194.289062 423.191406 199.414062 422.265625 210.207031 420.800781 C 216.066406 419.972656 220.3125 419.726562 231.347656 419.679688 C 239.160156 419.628906 245.3125 419.433594 245.558594 419.140625 C 246.238281 418.457031 244.335938 412.9375 243.015625 411.71875 C 241.0625 409.863281 236.230469 409.179688 224.367188 408.984375 C 218.457031 408.886719 212.746094 408.886719 211.667969 408.984375 Z M 211.667969 408.984375 "/>
<path style=" stroke:none;fill-rule:nonzero;fill:rgb(0%,0%,0%);fill-opacity:1;" d="M 130.421875 437.644531 C 128.222656 438.476562 126.222656 440.96875 125.535156 443.601562 C 125.242188 444.824219 125 449.902344 125 455.175781 C 125.050781 466.261719 125.535156 468.457031 128.5625 470.898438 C 130.128906 472.167969 130.910156 472.414062 133.789062 472.558594 C 137.742188 472.800781 139.988281 472.167969 141.699219 470.3125 C 143.308594 468.605469 144.042969 466.308594 144.042969 463.085938 L 144.042969 460.449219 L 137.695312 460.449219 L 137.695312 462.792969 C 137.695312 465.671875 136.667969 467.285156 134.816406 467.285156 C 132.03125 467.285156 131.835938 466.554688 131.835938 454.933594 C 131.835938 444.96875 131.882812 444.289062 132.8125 443.359375 C 134.082031 442.089844 135.058594 442.136719 136.476562 443.601562 C 137.355469 444.484375 137.695312 445.3125 137.695312 446.777344 L 137.695312 448.730469 L 143.554688 448.730469 L 143.554688 445.65625 C 143.554688 439.941406 141.160156 437.5 135.351562 437.207031 C 133.449219 437.109375 131.394531 437.304688 130.421875 437.644531 Z M 130.421875 437.644531 "/>
<path style=" stroke:none;fill-rule:nonzero;fill:rgb(0%,0%,0%);fill-opacity:1;" d="M 152.34375 438.085938 C 150.78125 438.917969 149.855469 439.84375 149.023438 441.40625 C 147.902344 443.554688 147.902344 443.847656 148.046875 455.320312 C 148.195312 466.40625 148.242188 467.140625 149.265625 468.75 C 150.878906 471.339844 153.566406 472.65625 157.179688 472.65625 C 158.839844 472.65625 160.886719 472.363281 161.765625 471.972656 C 163.820312 471.140625 165.820312 468.75 166.503906 466.40625 C 167.140625 464.015625 167.140625 447.023438 166.453125 443.847656 C 165.871094 440.96875 164.0625 438.625 161.765625 437.695312 C 159.277344 436.621094 154.882812 436.816406 152.34375 438.085938 Z M 159.226562 443.308594 C 160.398438 444.238281 160.398438 444.289062 160.398438 454.734375 C 160.351562 464.308594 160.300781 465.332031 159.472656 466.261719 C 158.300781 467.578125 156.542969 467.578125 155.226562 466.261719 C 154.296875 465.332031 154.246094 464.84375 154.394531 454.542969 C 154.539062 444.53125 154.589844 443.703125 155.46875 443.066406 C 156.785156 442.136719 157.859375 442.1875 159.226562 443.308594 Z M 159.226562 443.308594 "/>
<path style=" stroke:none;fill-rule:nonzero;fill:rgb(0%,0%,0%);fill-opacity:1;" d="M 175.78125 437.550781 C 172.460938 438.867188 170.898438 441.648438 170.898438 446.242188 C 170.898438 451.808594 171.925781 453.367188 178.078125 457.566406 C 181.003906 459.570312 181.691406 460.300781 182.175781 461.960938 C 183.203125 465.28125 181.691406 467.773438 179.101562 467.140625 C 177.785156 466.796875 176.757812 464.792969 176.757812 462.597656 C 176.757812 461.621094 176.511719 461.472656 173.828125 461.328125 L 170.898438 461.179688 L 170.898438 464.113281 C 170.898438 469.824219 173.777344 472.65625 179.6875 472.65625 C 183.449219 472.65625 185.789062 471.632812 187.304688 469.335938 C 189.550781 466.015625 189.210938 459.035156 186.671875 456.007812 C 185.984375 455.175781 183.835938 453.46875 181.933594 452.195312 C 177.492188 449.167969 177.003906 448.582031 177.003906 445.949219 C 177.003906 443.554688 177.976562 442.382812 179.980469 442.382812 C 181.398438 442.382812 182.175781 443.410156 182.46875 445.800781 L 182.765625 447.753906 L 188.625 447.753906 L 188.328125 445.019531 C 187.742188 439.402344 185.203125 436.964844 179.929688 437.0625 C 178.320312 437.0625 176.464844 437.304688 175.78125 437.550781 Z M 175.78125 437.550781 "/>
<path style=" stroke:none;fill-rule:nonzero;fill:rgb(0%,0%,0%);fill-opacity:1;" d="M 352.050781 438.085938 C 350.339844 438.964844 349.558594 439.796875 348.632812 441.648438 C 347.511719 443.945312 347.414062 444.628906 347.265625 453.125 C 347.070312 463.769531 347.363281 466.699219 348.78125 468.800781 C 350.632812 471.53125 352.246094 472.363281 355.90625 472.558594 C 360.105469 472.800781 362.304688 472.121094 364.210938 469.972656 C 366.359375 467.480469 366.796875 464.355469 366.601562 453.222656 C 366.457031 444.042969 366.40625 443.503906 365.234375 441.40625 C 363.625 438.523438 360.742188 437.011719 356.933594 437.011719 C 355.078125 437.011719 353.515625 437.355469 352.050781 438.085938 Z M 358.886719 443.359375 C 359.8125 444.289062 359.863281 444.96875 359.863281 454.734375 C 359.863281 463.328125 359.71875 465.28125 359.082031 466.210938 C 358.203125 467.480469 356.640625 467.578125 355.078125 466.503906 C 354.003906 465.773438 354.003906 465.574219 354.003906 454.835938 C 354.003906 444.089844 354.003906 443.894531 355.078125 443.164062 C 356.542969 442.136719 357.714844 442.1875 358.886719 443.359375 Z M 358.886719 443.359375 "/>
<path style=" stroke:none;fill-rule:nonzero;fill:rgb(0%,0%,0%);fill-opacity:1;" d="M 107.472656 443.945312 C 106.835938 447.507812 105.46875 455.222656 104.445312 461.035156 C 103.417969 466.894531 102.539062 471.777344 102.539062 471.925781 C 102.539062 472.070312 103.953125 472.167969 105.664062 472.167969 L 108.789062 472.167969 L 109.179688 468.359375 L 109.617188 464.601562 L 112.597656 464.453125 L 115.625 464.308594 L 115.917969 466.652344 C 116.113281 467.921875 116.40625 469.726562 116.550781 470.558594 L 116.796875 472.167969 L 123.191406 472.167969 L 122.851562 470.558594 C 122.117188 466.941406 119.140625 450.441406 118.117188 444.1875 L 117.042969 437.5 L 108.546875 437.5 Z M 114.699219 458.105469 C 114.746094 458.789062 114.355469 458.984375 112.792969 458.984375 C 111.277344 458.984375 110.839844 458.789062 110.839844 458.105469 C 110.839844 456.789062 112.351562 445.65625 112.644531 444.824219 C 112.890625 444.1875 114.597656 455.46875 114.699219 458.105469 Z M 114.699219 458.105469 "/>
<path style=" stroke:none;fill-rule:nonzero;fill:rgb(0%,0%,0%);fill-opacity:1;" d="M 190.917969 440.429688 L 190.917969 443.359375 L 196.777344 443.359375 L 196.777344 472.167969 L 203.125 472.167969 L 203.125 443.359375 L 208.984375 443.359375 L 208.984375 437.5 L 190.917969 437.5 Z M 190.917969 440.429688 "/>
<path style=" stroke:none;fill-rule:nonzero;fill:rgb(0%,0%,0%);fill-opacity:1;" d="M 213.425781 449.316406 C 212.253906 455.859375 210.886719 463.234375 210.402344 465.773438 C 209.035156 472.511719 208.933594 472.167969 212.546875 472.167969 L 215.671875 472.167969 L 216.113281 468.359375 L 216.554688 464.601562 L 219.53125 464.453125 L 222.558594 464.308594 L 222.851562 466.652344 C 223.046875 467.921875 223.339844 469.726562 223.484375 470.558594 L 223.730469 472.167969 L 226.855469 472.167969 C 228.566406 472.167969 229.980469 472.019531 229.980469 471.875 C 229.980469 471.726562 228.90625 465.378906 227.539062 457.859375 C 226.21875 450.292969 224.902344 442.628906 224.558594 440.769531 L 224.023438 437.5 L 215.527344 437.5 Z M 220.652344 449.804688 C 220.996094 452.589844 221.386719 455.761719 221.53125 456.886719 L 221.828125 458.984375 L 219.773438 458.984375 C 218.507812 458.984375 217.773438 458.742188 217.773438 458.347656 C 217.726562 456.789062 219.480469 444.824219 219.726562 444.824219 C 219.875 444.824219 220.3125 447.070312 220.652344 449.804688 Z M 220.652344 449.804688 "/>
<path style=" stroke:none;fill-rule:nonzero;fill:rgb(0%,0%,0%);fill-opacity:1;" d="M 236.328125 445.898438 L 239.550781 454.347656 L 237.011719 461.667969 C 235.644531 465.671875 234.230469 469.628906 233.9375 470.359375 C 233.644531 471.140625 233.398438 471.828125 233.398438 471.972656 C 233.398438 472.070312 234.8125 472.167969 236.523438 472.167969 C 239.550781 472.167969 239.699219 472.121094 239.992188 470.847656 C 240.136719 470.066406 240.871094 467.480469 241.652344 465.085938 L 243.015625 460.695312 L 244.824219 466.40625 L 246.628906 472.167969 L 250.242188 472.167969 C 253.808594 472.167969 253.855469 472.167969 253.417969 471.046875 C 246.582031 454.148438 246.777344 455.761719 250.097656 445.75 L 252.832031 437.5 L 246.628906 437.5 L 246.191406 439.160156 C 245.898438 440.039062 245.3125 442.480469 244.824219 444.53125 C 244.335938 446.582031 243.796875 448.09375 243.605469 447.902344 C 243.410156 447.65625 242.53125 445.261719 241.652344 442.480469 L 240.039062 437.5 L 233.058594 437.5 Z M 236.328125 445.898438 "/>
<path style=" stroke:none;fill-rule:nonzero;fill:rgb(0%,0%,0%);fill-opacity:1;" d="M 268.066406 454.835938 L 268.066406 472.167969 L 273.925781 472.167969 L 273.972656 461.035156 C 273.972656 454.542969 274.167969 450.441406 274.414062 451.171875 C 274.609375 451.855469 275.390625 454.347656 276.121094 456.789062 C 276.855469 459.179688 278.171875 463.671875 279.152344 466.652344 L 280.859375 472.167969 L 287.597656 472.167969 L 287.597656 437.5 L 281.640625 437.5 L 281.835938 447.996094 C 281.933594 453.808594 281.835938 458.007812 281.640625 457.421875 C 279.246094 449.363281 277.246094 442.578125 276.613281 440.28125 L 275.828125 437.5 L 268.066406 437.5 Z M 268.066406 454.835938 "/>
<path style=" stroke:none;fill-rule:nonzero;fill:rgb(0%,0%,0%);fill-opacity:1;" d="M 296.875 443.945312 C 296.289062 447.507812 294.871094 455.320312 293.75 461.28125 L 291.699219 472.167969 L 298.242188 472.167969 L 298.632812 468.359375 L 299.070312 464.601562 L 302.050781 464.453125 C 305.46875 464.308594 305.273438 464.0625 305.910156 469.335938 L 306.25 472.167969 L 312.644531 472.167969 L 312.355469 470.558594 C 312.207031 469.726562 310.839844 462.109375 309.375 453.710938 C 307.863281 445.3125 306.640625 438.230469 306.640625 437.988281 C 306.640625 437.695312 304.832031 437.5 302.34375 437.5 L 298 437.5 Z M 303.125 449.5625 C 303.464844 452.488281 303.90625 455.761719 304.050781 456.886719 L 304.34375 458.984375 L 300.144531 458.984375 L 300.4375 456.886719 C 300.585938 455.761719 300.976562 452.488281 301.316406 449.5625 C 301.660156 446.679688 302.097656 444.335938 302.246094 444.335938 C 302.390625 444.335938 302.785156 446.679688 303.125 449.5625 Z M 303.125 449.5625 "/>
<path style=" stroke:none;fill-rule:nonzero;fill:rgb(0%,0%,0%);fill-opacity:1;" d="M 313.476562 440.429688 L 313.476562 443.359375 L 319.335938 443.359375 L 319.335938 472.167969 L 325.683594 472.167969 L 325.683594 443.359375 L 328.515625 443.359375 C 330.078125 443.359375 331.496094 443.261719 331.59375 443.164062 C 331.6875 443.066406 331.6875 441.75 331.640625 440.234375 L 331.445312 437.5 L 313.476562 437.5 Z M 313.476562 440.429688 "/>
<path style=" stroke:none;fill-rule:nonzero;fill:rgb(0%,0%,0%);fill-opacity:1;" d="M 335.9375 454.835938 L 335.9375 472.167969 L 342.285156 472.167969 L 342.285156 437.5 L 335.9375 437.5 Z M 335.9375 454.835938 "/>
<path style=" stroke:none;fill-rule:nonzero;fill:rgb(0%,0%,0%);fill-opacity:1;" d="M 371.582031 454.835938 L 371.582031 472.167969 L 377.488281 472.167969 L 377.34375 460.9375 C 377.246094 454.734375 377.246094 449.707031 377.296875 449.707031 C 377.34375 449.707031 377.976562 451.609375 378.664062 453.953125 C 379.394531 456.347656 380.957031 461.375 382.175781 465.1875 L 384.375 472.167969 L 391.113281 472.167969 L 391.113281 437.5 L 385.203125 437.5 L 385.351562 447.949219 C 385.449219 453.710938 385.351562 458.300781 385.15625 458.15625 C 384.910156 458.054688 384.765625 457.667969 384.765625 457.375 C 384.765625 457.03125 383.496094 452.488281 381.933594 447.265625 L 379.101562 437.742188 L 375.34375 437.597656 L 371.582031 437.449219 Z M 371.582031 454.835938 "/>
</g>
</svg>
